<?xml version="1.0" standalone="no"?>
<!DOCTYPE svg PUBLIC "-//W3C//DTD SVG 20010904//EN"
 "http://www.w3.org/TR/2001/REC-SVG-20010904/DTD/svg10.dtd">
<svg version="1.0" xmlns="http://www.w3.org/2000/svg"
 width="3500.000000pt" height="1440.000000pt" viewBox="0 0 3500.000000 1440.000000"
 preserveAspectRatio="xMidYMid meet">

<g transform="translate(0.000000,1440.000000) scale(0.100000,-0.100000)"
fill="#000000" stroke="none">
<path d="M5766 8835 c-10 -28 -7 -3218 4 -3235 8 -13 81 -15 537 -18 720 -4
852 8 1032 93 225 107 376 287 438 523 36 134 38 362 5 494 -67 271 -244 472
-502 570 -23 9 -18 13 69 58 209 111 340 268 397 475 22 83 30 286 14 383 -15
96 -56 212 -101 289 -43 73 -177 207 -252 252 -70 41 -153 75 -255 104 -75 21
-94 22 -728 25 -594 3 -652 1 -658 -13z m1329 -168 c33 -9 101 -37 151 -62
200 -98 317 -270 346 -507 36 -287 -93 -539 -337 -659 -166 -81 -260 -90 -855
-87 l-455 3 -3 668 -2 668 547 -3 c481 -3 555 -6 608 -21z m-43 -1491 c164
-32 265 -84 379 -196 134 -132 188 -262 196 -471 7 -157 -12 -260 -67 -374
-66 -136 -173 -244 -304 -309 -145 -72 -129 -70 -753 -74 l-563 -3 0 721 0
720 519 0 c404 0 535 -3 593 -14z"/>
<path d="M13626 8834 c-3 -9 -6 -607 -6 -1331 0 -1190 1 -1315 16 -1309 8 3
49 16 90 27 l74 22 0 127 0 126 314 312 c173 172 318 312 324 312 5 0 69 -134
142 -297 73 -164 134 -299 135 -300 0 -1 35 8 76 21 51 16 73 27 71 37 -2 8
-69 161 -149 342 l-145 327 78 83 c43 45 180 187 304 315 124 128 227 240 228
249 6 25 -17 33 -98 33 l-75 0 -260 -262 c-144 -145 -411 -415 -593 -601 -183
-186 -337 -335 -343 -332 -5 4 -9 403 -9 1045 0 571 -3 1045 -6 1054 -5 13
-22 16 -84 16 -62 0 -79 -3 -84 -16z"/>
<path d="M16917 8843 c-4 -3 -7 -377 -7 -830 0 -652 3 -823 13 -823 6 0 91 25
187 55 l175 54 -91 0 c-66 1 -95 5 -103 15 -9 10 -10 186 -5 694 l7 680 919 4
c803 3 920 5 928 18 14 22 12 114 -2 128 -9 9 -248 12 -1013 12 -551 0 -1005
-3 -1008 -7z"/>
<path d="M19545 8766 c-37 -16 -82 -68 -91 -102 -10 -41 2 -110 25 -142 34
-48 101 -75 172 -70 92 7 148 59 157 147 6 67 -24 129 -77 159 -45 26 -137 29
-186 8z"/>
<path d="M9350 7959 c-165 -11 -289 -54 -425 -144 -182 -121 -284 -275 -348
-524 -21 -82 -22 -107 -22 -501 1 -443 8 -529 56 -673 77 -229 259 -422 476
-505 123 -47 183 -57 358 -56 229 0 358 35 515 139 186 124 299 297 347 532
16 77 18 144 18 533 0 389 -2 456 -18 533 -37 184 -109 319 -228 433 -188 179
-421 253 -729 233z m275 -174 c39 -8 112 -35 163 -60 168 -83 288 -232 338
-420 26 -100 40 -503 27 -799 -10 -224 -14 -260 -37 -331 -67 -209 -215 -360
-421 -431 -68 -23 -101 -28 -217 -32 -166 -5 -254 11 -378 70 -113 54 -229
168 -283 279 -74 148 -79 189 -84 599 -7 497 6 627 78 774 84 173 243 300 432
347 91 22 284 24 382 4z"/>
<path d="M11725 7944 c-333 -74 -575 -313 -650 -644 -15 -62 -18 -144 -22
-459 -5 -405 1 -510 38 -655 68 -267 228 -459 470 -563 l76 -33 184 55 c211
64 219 67 162 59 -61 -8 -225 14 -305 41 -190 64 -337 213 -402 407 -38 113
-46 186 -53 478 -13 596 30 795 211 975 156 155 349 219 591 194 181 -18 300
-74 425 -199 95 -95 136 -164 172 -297 20 -72 22 -107 26 -481 4 -441 -3 -554
-42 -670 -44 -128 -127 -241 -236 -322 -32 -23 -38 -30 -20 -25 14 5 90 28
170 52 162 48 165 50 216 158 74 155 94 316 94 754 0 443 -20 585 -104 756
-94 191 -270 331 -503 401 -77 24 -109 27 -258 30 -127 3 -188 0 -240 -12z"/>
</g>
</svg>
